<?xml version="1.0" encoding="UTF-8"?>
<svg id="Layer_2" data-name="Layer 2" xmlns="http://www.w3.org/2000/svg" viewBox="0 0 800 800">
  <g id="Layer_1-2" data-name="Layer 1">
    <path d="M523.36,18.6C477.09,3.3,416.96-3.05,361.36,1.39,237.91,11.27,117.66,88.64,54.01,199.1c-67.51,117.48-72.02,258.84-11.89,379.19,36.65,73.86,99.34,137.54,172.95,176.39,90.66,48.07,209.29,58.91,307.01,27.7,143.05-45.54,250.11-169.37,273.59-317.1,7.72-47.11,4.82-116.84-6.44-160.77-34.07-134.98-134.06-242.6-265.88-285.89ZM485.87,511.76c-15.59,15.59-42.98,4.78-42.98-17.19,0-6.38,2.87-11.77,9.86-17.5,11.15-9.55,15.59-10.2,28.01-3.51h.02c15.28,7.64,17.84,25.79,5.09,38.21ZM623.75,475.13l-.96,125.77-35.03.96c-19.1.64-38.21,0-42.03-.96l-7.33-1.6v-117.17c0-126.72-.96-136.89-17.84-170.01-19.75-38.85-63.04-69.72-104.11-74.19-68.46-7.33-131.5,38.85-150.27,110.15-3.82,13.37-4.78,42.67-4.78,132.12,0,94.56-.96,115.88-4.47,118.75-2.87,2.55-17.19,3.51-42.03,2.87l-37.89-.96v-270.61l8.6-25.48c12.73-36.94,29.3-63.35,58.26-92.34,55.4-55.71,134.98-78.01,209.48-58.91l.05.07c81.19,20.7,142.96,84.36,164.59,170.32,6.04,23.88,6.38,34.07,5.73,151.22Z"/>
  </g>
</svg>